<svg width="127" height="11" viewBox="0 0 127 11" fill="none" xmlns="http://www.w3.org/2000/svg">
<rect width="127" height="11" fill="white"/>
<path d="M30 0H41V11H30V0Z" fill="#EBEDF0"/>
<path d="M56 0H67V11H56V0Z" fill="#40C463"/>
<path d="M43 0H54V11H43V0Z" fill="#9BE9A8"/>
<path d="M82 0H93V11H82V0Z" fill="#216E39"/>
<path d="M69 0H80V11H69V0Z" fill="#30A14E"/>
<path d="M2.17773 10V1.43359H3.17383V9.09766H6.95312V10H2.17773Z" fill="black"/>
<path d="M10.9785 10.1172C10.0293 10.1172 9.2793 9.82812 8.72852 9.25C8.18164 8.67188 7.9082 7.86914 7.9082 6.8418C7.9082 5.80664 8.16211 4.98438 8.66992 4.375C9.18164 3.76562 9.86719 3.46094 10.7266 3.46094C11.5312 3.46094 12.168 3.72656 12.6367 4.25781C13.1055 4.78516 13.3398 5.48242 13.3398 6.34961V6.96484H8.91602C8.93555 7.71875 9.125 8.29102 9.48438 8.68164C9.84766 9.07227 10.3574 9.26758 11.0137 9.26758C11.7051 9.26758 12.3887 9.12305 13.0645 8.83398V9.70117C12.7207 9.84961 12.3945 9.95508 12.0859 10.0176C11.7812 10.084 11.4121 10.1172 10.9785 10.1172ZM10.7148 4.27539C10.1992 4.27539 9.78711 4.44336 9.47852 4.7793C9.17383 5.11523 8.99414 5.58008 8.93945 6.17383H12.2969C12.2969 5.56055 12.1602 5.0918 11.8867 4.76758C11.6133 4.43945 11.2227 4.27539 10.7148 4.27539Z" fill="black"/>
<path d="M19.1465 8.24805C19.1465 8.8457 18.9238 9.30664 18.4785 9.63086C18.0332 9.95508 17.4082 10.1172 16.6035 10.1172C15.752 10.1172 15.0879 9.98242 14.6113 9.71289V8.81055C14.9199 8.9668 15.25 9.08984 15.6016 9.17969C15.957 9.26953 16.2988 9.31445 16.627 9.31445C17.1348 9.31445 17.5254 9.23438 17.7988 9.07422C18.0723 8.91016 18.209 8.66211 18.209 8.33008C18.209 8.08008 18.0996 7.86719 17.8809 7.69141C17.666 7.51172 17.2441 7.30078 16.6152 7.05859C16.0176 6.83594 15.5918 6.64258 15.3379 6.47852C15.0879 6.31055 14.9004 6.12109 14.7754 5.91016C14.6543 5.69922 14.5938 5.44727 14.5938 5.1543C14.5938 4.63086 14.8066 4.21875 15.2324 3.91797C15.6582 3.61328 16.2422 3.46094 16.9844 3.46094C17.6758 3.46094 18.3516 3.60156 19.0117 3.88281L18.666 4.67383C18.0215 4.4082 17.4375 4.27539 16.9141 4.27539C16.4531 4.27539 16.1055 4.34766 15.8711 4.49219C15.6367 4.63672 15.5195 4.83594 15.5195 5.08984C15.5195 5.26172 15.5625 5.4082 15.6484 5.5293C15.7383 5.65039 15.8809 5.76562 16.0762 5.875C16.2715 5.98438 16.6465 6.14258 17.2012 6.34961C17.9629 6.62695 18.4766 6.90625 18.7422 7.1875C19.0117 7.46875 19.1465 7.82227 19.1465 8.24805Z" fill="black"/>
<path d="M24.877 8.24805C24.877 8.8457 24.6543 9.30664 24.209 9.63086C23.7637 9.95508 23.1387 10.1172 22.334 10.1172C21.4824 10.1172 20.8184 9.98242 20.3418 9.71289V8.81055C20.6504 8.9668 20.9805 9.08984 21.332 9.17969C21.6875 9.26953 22.0293 9.31445 22.3574 9.31445C22.8652 9.31445 23.2559 9.23438 23.5293 9.07422C23.8027 8.91016 23.9395 8.66211 23.9395 8.33008C23.9395 8.08008 23.8301 7.86719 23.6113 7.69141C23.3965 7.51172 22.9746 7.30078 22.3457 7.05859C21.748 6.83594 21.3223 6.64258 21.0684 6.47852C20.8184 6.31055 20.6309 6.12109 20.5059 5.91016C20.3848 5.69922 20.3242 5.44727 20.3242 5.1543C20.3242 4.63086 20.5371 4.21875 20.9629 3.91797C21.3887 3.61328 21.9727 3.46094 22.7148 3.46094C23.4062 3.46094 24.082 3.60156 24.7422 3.88281L24.3965 4.67383C23.752 4.4082 23.168 4.27539 22.6445 4.27539C22.1836 4.27539 21.8359 4.34766 21.6016 4.49219C21.3672 4.63672 21.25 4.83594 21.25 5.08984C21.25 5.26172 21.293 5.4082 21.3789 5.5293C21.4688 5.65039 21.6113 5.76562 21.8066 5.875C22.002 5.98438 22.377 6.14258 22.9316 6.34961C23.6934 6.62695 24.207 6.90625 24.4727 7.1875C24.7422 7.46875 24.877 7.82227 24.877 8.24805Z" fill="black"/>
<path d="M100.969 10L98.0625 2.40625H98.0156C98.0703 3.00781 98.0977 3.72266 98.0977 4.55078V10H97.1777V1.43359H98.6777L101.391 8.5H101.438L104.174 1.43359H105.662V10H104.666V4.48047C104.666 3.84766 104.693 3.16016 104.748 2.41797H104.701L101.771 10H100.969Z" fill="black"/>
<path d="M113.414 6.7832C113.414 7.83008 113.15 8.64844 112.623 9.23828C112.096 9.82422 111.367 10.1172 110.438 10.1172C109.863 10.1172 109.354 9.98242 108.908 9.71289C108.463 9.44336 108.119 9.05664 107.877 8.55273C107.635 8.04883 107.514 7.45898 107.514 6.7832C107.514 5.73633 107.775 4.92188 108.299 4.33984C108.822 3.75391 109.549 3.46094 110.479 3.46094C111.377 3.46094 112.09 3.75977 112.617 4.35742C113.148 4.95508 113.414 5.76367 113.414 6.7832ZM108.521 6.7832C108.521 7.60352 108.686 8.22852 109.014 8.6582C109.342 9.08789 109.824 9.30273 110.461 9.30273C111.098 9.30273 111.58 9.08984 111.908 8.66406C112.24 8.23438 112.406 7.60742 112.406 6.7832C112.406 5.9668 112.24 5.34766 111.908 4.92578C111.58 4.5 111.094 4.28711 110.449 4.28711C109.812 4.28711 109.332 4.49609 109.008 4.91406C108.684 5.33203 108.521 5.95508 108.521 6.7832Z" fill="black"/>
<path d="M118.055 3.46094C118.34 3.46094 118.596 3.48438 118.822 3.53125L118.688 4.43359C118.422 4.375 118.188 4.3457 117.984 4.3457C117.465 4.3457 117.02 4.55664 116.648 4.97852C116.281 5.40039 116.098 5.92578 116.098 6.55469V10H115.125V3.57812H115.928L116.039 4.76758H116.086C116.324 4.34961 116.611 4.02734 116.947 3.80078C117.283 3.57422 117.652 3.46094 118.055 3.46094Z" fill="black"/>
<path d="M122.736 10.1172C121.787 10.1172 121.037 9.82812 120.486 9.25C119.939 8.67188 119.666 7.86914 119.666 6.8418C119.666 5.80664 119.92 4.98438 120.428 4.375C120.939 3.76562 121.625 3.46094 122.484 3.46094C123.289 3.46094 123.926 3.72656 124.395 4.25781C124.863 4.78516 125.098 5.48242 125.098 6.34961V6.96484H120.674C120.693 7.71875 120.883 8.29102 121.242 8.68164C121.605 9.07227 122.115 9.26758 122.771 9.26758C123.463 9.26758 124.146 9.12305 124.822 8.83398V9.70117C124.479 9.84961 124.152 9.95508 123.844 10.0176C123.539 10.084 123.17 10.1172 122.736 10.1172ZM122.473 4.27539C121.957 4.27539 121.545 4.44336 121.236 4.7793C120.932 5.11523 120.752 5.58008 120.697 6.17383H124.055C124.055 5.56055 123.918 5.0918 123.645 4.76758C123.371 4.43945 122.98 4.27539 122.473 4.27539Z" fill="black"/>
</svg>
